<svg width="42" height="32" viewBox="0 0 42 32" fill="none" xmlns="http://www.w3.org/2000/svg">
<g filter="url(#filter0_d_1_45)">
<rect x="4" width="34" height="24" rx="4" fill="white"/>
<rect x="4.5" y="0.5" width="33" height="23" rx="3.5" stroke="#D9D9D9"/>
</g>
<path fill-rule="evenodd" clip-rule="evenodd" d="M21 17.4472C19.8349 18.4155 18.3236 19 16.6721 19C12.9872 19 10 16.0899 10 12.5C10 8.91015 12.9872 6 16.6721 6C18.3236 6 19.8349 6.58452 21 7.55277C22.1651 6.58452 23.6764 6 25.3279 6C29.0128 6 32 8.91015 32 12.5C32 16.0899 29.0128 19 25.3279 19C23.6764 19 22.1651 18.4155 21 17.4472Z" fill="#ED0006"/>
<path fill-rule="evenodd" clip-rule="evenodd" d="M21 17.4472C22.4346 16.255 23.3442 14.481 23.3442 12.5C23.3442 10.519 22.4346 8.74499 21 7.55277C22.1651 6.58452 23.6764 6 25.3279 6C29.0128 6 32 8.91015 32 12.5C32 16.0899 29.0128 19 25.3279 19C23.6764 19 22.1651 18.4155 21 17.4472Z" fill="#F9A000"/>
<path fill-rule="evenodd" clip-rule="evenodd" d="M21 17.4472C22.4346 16.255 23.3443 14.481 23.3443 12.5C23.3443 10.519 22.4346 8.74495 21 7.55273C19.5654 8.74495 18.6558 10.519 18.6558 12.5C18.6558 14.481 19.5654 16.255 21 17.4472Z" fill="#FF5E00"/>
<defs>
<filter id="filter0_d_1_45" x="0" y="0" width="42" height="32" filterUnits="userSpaceOnUse" color-interpolation-filters="sRGB">
<feFlood flood-opacity="0" result="BackgroundImageFix"/>
<feColorMatrix in="SourceAlpha" type="matrix" values="0 0 0 0 0 0 0 0 0 0 0 0 0 0 0 0 0 0 127 0" result="hardAlpha"/>
<feOffset dy="4"/>
<feGaussianBlur stdDeviation="2"/>
<feComposite in2="hardAlpha" operator="out"/>
<feColorMatrix type="matrix" values="0 0 0 0 0 0 0 0 0 0 0 0 0 0 0 0 0 0 0.25 0"/>
<feBlend mode="normal" in2="BackgroundImageFix" result="effect1_dropShadow_1_45"/>
<feBlend mode="normal" in="SourceGraphic" in2="effect1_dropShadow_1_45" result="shape"/>
</filter>
</defs>
</svg>
